<?xml version="1.0" encoding="utf-8"?>
<!-- Generator: Adobe Illustrator 22.0.1, SVG Export Plug-In . SVG Version: 6.00 Build 0)  -->
<svg version="1.1" xmlns="http://www.w3.org/2000/svg" xmlns:xlink="http://www.w3.org/1999/xlink" x="0px" y="0px"
	 viewBox="0 0 124 124" style="enable-background:new 0 0 124 124;" xml:space="preserve">
<style type="text/css">
	.st0{fill:#414141;}
	.st1{fill-rule:evenodd;clip-rule:evenodd;fill:#FFFFFF;}
	.st2{fill:none;stroke:#FFFFFF;stroke-width:3;stroke-miterlimit:100;}
	.st3{fill:none;stroke:#FFFFFF;stroke-width:2.5;stroke-miterlimit:10;}
	.st4{fill-rule:evenodd;clip-rule:evenodd;fill:#414141;}
	.st5{fill:#FFFFFF;}
	.st6{fill:none;stroke:#FFFFFF;stroke-width:1.5;stroke-miterlimit:10;}
	.st7{fill:#FFFFFF;stroke:#FFFFFF;stroke-width:2;stroke-miterlimit:10;}
	.st8{fill:none;stroke:#FFFFFF;stroke-width:2.5;stroke-miterlimit:100;}
	.st9{fill:#FFFFFF;stroke:#FFFFFF;stroke-miterlimit:100;}
	.st10{fill:none;stroke:#FFFFFF;stroke-width:5;stroke-miterlimit:10;}
	.st11{fill:none;stroke:#FFFFFF;stroke-width:2.75;stroke-miterlimit:100;}
	.st12{fill:none;stroke:#FFFFFF;stroke-miterlimit:100;}
	.st13{fill:#FFFFFF;stroke:#FFFFFF;stroke-width:3;stroke-miterlimit:100;}
	.st14{fill:none;stroke:#FFFFFF;stroke-width:2;stroke-miterlimit:100;}
	.st15{fill-rule:evenodd;clip-rule:evenodd;fill:#F5F5F5;}
</style>
<g id="icon-newsletter-thick">
</g>
<g id="icon-form-video-thick">
</g>
<g id="icon-regulations-thick">
</g>
<g id="icon-considering-thick">
</g>
<g id="icon-federal-thick">
</g>
<g id="icon-calendar-thick">
</g>
<g id="icon-phone-thick">
</g>
<g id="icon-medicaid-thick">
</g>
<g id="icon-education-thick">
</g>
<g id="icon-international-thick">
</g>
<g id="icon-certification-thick">
</g>
<g id="icon-question-thick">
</g>
<g id="icon-person-thick">
</g>
<g id="icon-forms-thick">
</g>
<g id="icon-quote-thick">
</g>
<g id="icon-clipboard-thick">
</g>
<g id="icon-drugs-thick">
</g>
<g id="icon-medicare-thick">
</g>
<g id="icon-brokers-thick">
	<g>
		<circle class="st0" cx="62" cy="62" r="62"/>
	</g>
	<g id="icon-handshake">
		<g>
			<path class="st1" d="M103.1,57c-0.2-7.9-7-14-11.8-15.5l-0.6-0.2l-0.5,0.3c-1.9,1-11.7,5.5-13.4,5.7c-1,0-5.2-1.8-7.3-2.7
				c-2-0.9-3.2-1.4-3.9-1.5c-0.2,0-0.4-0.1-0.6-0.1c-1.5,0-8.7,1.9-13.8,3.9l-10.1-7.3l-0.6,0.1C35.3,40.2,26,48.1,24,55.1l-0.2,0.8
				l7.1,7.3c0.6,1.8,1.1,3.2,1.7,4.2l-1.7,1.6c-1.3,1.2-1.7,3-1.2,4.7c0.5,1.5,1.6,2.6,3.1,3.2c0.6,1.9,2.2,3.9,5.2,4.7
				c0.7,1.7,2.1,3.5,5.1,4.2c1.1,2.1,3.2,4,5.7,4c1.3,0,2.6-0.5,3.6-1.6l0.7-0.7l2,2c1.7,1.7,3.4,2.1,4.7,2.1c0.2,0,0.5,0,0.7,0
				c1.8-0.2,3.6-1.4,5-3.3c1.4,0.4,3,0.4,4.5-0.1c1.6-0.5,3-1.4,3.9-2.6c1.9,0.5,3.9,0.1,5.6-1c1.4-1,2.4-2.4,2.8-3.7
				c2.4-0.5,4.5-2,5.5-4.1c0.8-1.7,0.8-3.5,0.1-5.2c2.3-1.4,4.7-4.4,6.9-7.4c0.5-0.7,0.9-1.3,1.2-1.6c0.9-0.6,5.7-4,6.5-4.6l0.6-0.4
				L103.1,57z M52.1,84.8l-1.6,1.5c-0.5,0.5-1,0.7-1.6,0.7c-1.2,0-2.7-1.3-3.3-2.9l-0.3-0.8l-0.8-0.2c-2.5-0.4-3.3-1.5-4-3.3
				l-0.3-0.8l-0.8-0.1c-3.3-0.6-3.8-3.2-3.8-3.4l-0.1-1l-1-0.2c-0.9-0.2-1.5-0.7-1.8-1.5c-0.1-0.3-0.3-1.2,0.4-1.8l2.3-2.2
				c0.1-0.1,0.2-0.2,0.6-0.2c1.3,0,3.1,1.5,3.3,2.6l0.3,1.1l1.2,0c2.8,0,3.8,2.7,3.9,3.2l0.2,0.8l0.8,0.2c1.7,0.4,3.2,2,3.4,3.3
				l0.1,0.9L50,81c1,0.3,1.9,1.2,2.2,2.2C52.4,83.7,52.5,84.3,52.1,84.8z M85.3,75.7c-0.6,1.3-2,2.3-3.7,2.6L70.9,68.1l-2.1,2
				l10.7,10.3c-0.1,0.5-0.6,1.4-1.6,2.1c-0.8,0.6-2.1,1.1-3.6,0.4L65,73.9l-2.1,2l8.7,8.3c-0.6,0.7-1.4,1.2-2.3,1.5
				c-0.8,0.2-2,0.4-3.3-0.2l-6.3-6.1l-2.1,2l5.7,5.4c-0.9,1.2-2,1.9-2.9,2c-0.9,0.1-1.9-0.3-2.9-1.2L55,85.4c0.3-0.9,0.4-1.9,0-3
				c-0.5-1.6-1.8-3-3.3-3.8c-0.6-2-2.4-3.8-4.6-4.7c-0.8-1.9-2.6-4-5.4-4.4c-1.1-2-3.6-3.8-5.8-3.8c-0.3,0-0.5,0-0.7,0.1
				c-0.4-0.7-0.9-1.8-1.5-3.8l-0.1-0.3l-6.4-6.7c2.1-5.6,9.4-11.6,13.2-12.4l7.9,5.7c-1.1,0.5-1.8,1.1-2.1,1.5
				c-0.3,0.5-0.8,1.7,0.2,3.3c1.4,2.4,5.3,4.8,9,4.3c1.3-0.2,2.8-0.5,4.3-0.8c2.1-0.4,4.2-0.9,5.7-0.9c1.1,0,1.4,0.2,1.5,0.3
				c0.8,0.8,2,2,3.4,3.4c4.1,4,9.7,9.5,12.8,12.2c0.6,0.5,1.3,0.8,2.1,0.9C85.7,73.6,85.8,74.7,85.3,75.7z M94.2,60.5L94,60.7
				c-0.4,0.4-0.9,1-1.5,2c-1.4,1.9-5.1,7-7,7c-0.1,0-0.3,0-0.5-0.2c-3.1-2.6-8.6-8.1-12.7-12.1c-1.4-1.4-2.6-2.6-3.5-3.4
				C68,53.3,66.9,53,65.3,53c-1.9,0-4.1,0.5-6.4,0.9c-1.5,0.3-2.8,0.6-4,0.7c-2.1,0.3-4.3-0.9-5.4-2.1c-0.6-0.6-0.8-1-0.8-1.2
				c1.9-1.5,14.3-5.4,16.3-5.4c0.4,0.1,2,0.8,3.4,1.4c4.4,1.9,7.5,3.1,8.9,2.9c2.3-0.3,11.4-4.6,13.8-5.7c3.7,1.4,8.6,6.1,9.1,11.9
				C98.8,57.3,95.8,59.4,94.2,60.5z"/>
		</g>
		<g>
			<path class="st14" d="M103.1,57c-0.2-7.9-7-14-11.8-15.5l-0.6-0.2l-0.5,0.3c-1.9,1-11.7,5.5-13.4,5.7c-1,0-5.2-1.8-7.3-2.7
				c-2-0.9-3.2-1.4-3.9-1.5c-0.2,0-0.4-0.1-0.6-0.1c-1.5,0-8.7,1.9-13.8,3.9l-10.1-7.3l-0.6,0.1C35.3,40.2,26,48.1,24,55.1l-0.2,0.8
				l7.1,7.3c0.6,1.8,1.1,3.2,1.7,4.2l-1.7,1.6c-1.3,1.2-1.7,3-1.2,4.7c0.5,1.5,1.6,2.6,3.1,3.2c0.6,1.9,2.2,3.9,5.2,4.7
				c0.7,1.7,2.1,3.5,5.1,4.2c1.1,2.1,3.2,4,5.7,4c1.3,0,2.6-0.5,3.6-1.6l0.7-0.7l2,2c1.7,1.7,3.4,2.1,4.7,2.1c0.2,0,0.5,0,0.7,0
				c1.8-0.2,3.6-1.4,5-3.3c1.4,0.4,3,0.4,4.5-0.1c1.6-0.5,3-1.4,3.9-2.6c1.9,0.5,3.9,0.1,5.6-1c1.4-1,2.4-2.4,2.8-3.7
				c2.4-0.5,4.5-2,5.5-4.1c0.8-1.7,0.8-3.5,0.1-5.2c2.3-1.4,4.7-4.4,6.9-7.4c0.5-0.7,0.9-1.3,1.2-1.6c0.9-0.6,5.7-4,6.5-4.6l0.6-0.4
				L103.1,57z M52.1,84.8l-1.6,1.5c-0.5,0.5-1,0.7-1.6,0.7c-1.2,0-2.7-1.3-3.3-2.9l-0.3-0.8l-0.8-0.2c-2.5-0.4-3.3-1.5-4-3.3
				l-0.3-0.8l-0.8-0.1c-3.3-0.6-3.8-3.2-3.8-3.4l-0.1-1l-1-0.2c-0.9-0.2-1.5-0.7-1.8-1.5c-0.1-0.3-0.3-1.2,0.4-1.8l2.3-2.2
				c0.1-0.1,0.2-0.2,0.6-0.2c1.3,0,3.1,1.5,3.3,2.6l0.3,1.1l1.2,0c2.8,0,3.8,2.7,3.9,3.2l0.2,0.8l0.8,0.2c1.7,0.4,3.2,2,3.4,3.3
				l0.1,0.9L50,81c1,0.3,1.9,1.2,2.2,2.2C52.4,83.7,52.5,84.3,52.1,84.8z M85.3,75.7c-0.6,1.3-2,2.3-3.7,2.6L70.9,68.1l-2.1,2
				l10.7,10.3c-0.1,0.5-0.6,1.4-1.6,2.1c-0.8,0.6-2.1,1.1-3.6,0.4L65,73.9l-2.1,2l8.7,8.3c-0.6,0.7-1.4,1.2-2.3,1.5
				c-0.8,0.2-2,0.4-3.3-0.2l-6.3-6.1l-2.1,2l5.7,5.4c-0.9,1.2-2,1.9-2.9,2c-0.9,0.1-1.9-0.3-2.9-1.2L55,85.4c0.3-0.9,0.4-1.9,0-3
				c-0.5-1.6-1.8-3-3.3-3.8c-0.6-2-2.4-3.8-4.6-4.7c-0.8-1.9-2.6-4-5.4-4.4c-1.1-2-3.6-3.8-5.8-3.8c-0.3,0-0.5,0-0.7,0.1
				c-0.4-0.7-0.9-1.8-1.5-3.8l-0.1-0.3l-6.4-6.7c2.1-5.6,9.4-11.6,13.2-12.4l7.9,5.7c-1.1,0.5-1.8,1.1-2.1,1.5
				c-0.3,0.5-0.8,1.7,0.2,3.3c1.4,2.4,5.3,4.8,9,4.3c1.3-0.2,2.8-0.5,4.3-0.8c2.1-0.4,4.2-0.9,5.7-0.9c1.1,0,1.4,0.2,1.5,0.3
				c0.8,0.8,2,2,3.4,3.4c4.1,4,9.7,9.5,12.8,12.2c0.6,0.5,1.3,0.8,2.1,0.9C85.7,73.6,85.8,74.7,85.3,75.7z M94.2,60.5L94,60.7
				c-0.4,0.4-0.9,1-1.5,2c-1.4,1.9-5.1,7-7,7c-0.1,0-0.3,0-0.5-0.2c-3.1-2.6-8.6-8.1-12.7-12.1c-1.4-1.4-2.6-2.6-3.5-3.4
				C68,53.3,66.9,53,65.3,53c-1.9,0-4.1,0.5-6.4,0.9c-1.5,0.3-2.8,0.6-4,0.7c-2.1,0.3-4.3-0.9-5.4-2.1c-0.6-0.6-0.8-1-0.8-1.2
				c1.9-1.5,14.3-5.4,16.3-5.4c0.4,0.1,2,0.8,3.4,1.4c4.4,1.9,7.5,3.1,8.9,2.9c2.3-0.3,11.4-4.6,13.8-5.7c3.7,1.4,8.6,6.1,9.1,11.9
				C98.8,57.3,95.8,59.4,94.2,60.5z"/>
		</g>
	</g>
</g>
<g id="icon-stethoscope-thick">
</g>
<g id="icon-employers-thick">
</g>
<g id="icon-individuals-thick">
</g>
</svg>
