<?xml version="1.0" encoding="utf-8"?>
<!-- Generator: Adobe Illustrator 22.0.1, SVG Export Plug-In . SVG Version: 6.00 Build 0)  -->
<svg version="1.1" xmlns="http://www.w3.org/2000/svg" xmlns:xlink="http://www.w3.org/1999/xlink" x="0px" y="0px"
	 viewBox="0 0 124 124" style="enable-background:new 0 0 124 124;" xml:space="preserve">
<style type="text/css">
	.st0{fill:#414141;}
	.st1{fill-rule:evenodd;clip-rule:evenodd;fill:#FFFFFF;}
	.st2{fill:none;stroke:#FFFFFF;stroke-width:3;stroke-miterlimit:100;}
	.st3{fill:none;stroke:#FFFFFF;stroke-width:2.5;stroke-miterlimit:10;}
	.st4{fill-rule:evenodd;clip-rule:evenodd;fill:#414141;}
	.st5{fill:#FFFFFF;}
	.st6{fill:none;stroke:#FFFFFF;stroke-width:1.5;stroke-miterlimit:10;}
	.st7{fill:#FFFFFF;stroke:#FFFFFF;stroke-width:2;stroke-miterlimit:10;}
	.st8{fill:none;stroke:#FFFFFF;stroke-width:2.5;stroke-miterlimit:100;}
	.st9{fill:#FFFFFF;stroke:#FFFFFF;stroke-miterlimit:100;}
	.st10{fill:none;stroke:#FFFFFF;stroke-width:5;stroke-miterlimit:10;}
	.st11{fill:none;stroke:#FFFFFF;stroke-width:2.75;stroke-miterlimit:100;}
	.st12{fill:none;stroke:#FFFFFF;stroke-miterlimit:100;}
	.st13{fill:#FFFFFF;stroke:#FFFFFF;stroke-width:3;stroke-miterlimit:100;}
	.st14{fill:none;stroke:#FFFFFF;stroke-width:2;stroke-miterlimit:100;}
	.st15{fill-rule:evenodd;clip-rule:evenodd;fill:#F5F5F5;}
</style>
<g id="icon-newsletter-thick">
</g>
<g id="icon-form-video-thick">
</g>
<g id="icon-regulations-thick">
</g>
<g id="icon-considering-thick">
</g>
<g id="icon-federal-thick">
</g>
<g id="icon-calendar-thick">
</g>
<g id="icon-phone-thick">
</g>
<g id="icon-medicaid-thick">
</g>
<g id="icon-education-thick">
</g>
<g id="icon-international-thick">
</g>
<g id="icon-certification-thick">
</g>
<g id="icon-question-thick">
</g>
<g id="icon-person-thick">
</g>
<g id="icon-forms-thick">
</g>
<g id="icon-quote-thick">
</g>
<g id="icon-clipboard-thick">
</g>
<g id="icon-drugs-thick">
</g>
<g id="icon-medicare-thick">
</g>
<g id="icon-brokers-thick">
</g>
<g id="icon-stethoscope-thick">
</g>
<g id="icon-employers-thick">
</g>
<g id="icon-individuals-thick">
	<g>
		<circle class="st0" cx="61.7" cy="62" r="62"/>
	</g>
	<g id="icon-family">
		<g>
			<path class="st1" d="M86.5,51.4c2.1-2,3.4-4.9,3.4-8.1c0-6.1-4.8-11.1-10.8-11.1c-5.9,0-10.8,5-10.8,11.1c0,3.2,1.3,6,3.4,8.1
				c-3,0.3-5.3,2.9-5.3,6.1v0.7c-1.2-0.4-2.4-0.7-3.7-0.7c-2.2,0-4.2,0.7-5.9,1.8c-0.9-1.8-2.6-3-4.6-3.3c2.1-2,3.4-4.9,3.4-8.1
				c0-6.1-4.8-11.1-10.8-11.1c-6,0-10.8,5-10.8,11.1c0,3.2,1.3,6.1,3.4,8.1c-3,0.3-5.3,2.9-5.3,6.1v25.3c0,0.8,0.7,1.5,1.5,1.5
				c0.8,0,1.5-0.7,1.5-1.5V62.1c0-1.7,1.3-3.1,3-3.1h13.4c1.4,0,2.6,1,2.9,2.4c-1.6,1.9-2.5,4.4-2.5,7.1c0,3.2,1.3,6.1,3.4,8.1
				c-3,0.3-5.3,2.9-5.3,6.1v10c0,0.8,0.7,1.5,1.5,1.5c0.8,0,1.5-0.7,1.5-1.5v-10c0-1.7,1.3-3.1,3-3.1h13.4c1.6,0,3,1.4,3,3.1v10
				c0,0.8,0.7,1.5,1.5,1.5c0.8,0,1.5-0.7,1.5-1.5v-10c0-3.1-2.3-5.7-5.3-6.1c2.1-2,3.4-4.9,3.4-8.1c0-3.5-1.6-6.7-4.1-8.7
				c0,0,0-0.1,0-0.1v-2.3c0-1.7,1.3-3.1,3-3.1h13.4c1.6,0,3,1.4,3,3.1v25.3c0,0.8,0.7,1.5,1.5,1.5c0.8,0,1.5-0.7,1.5-1.5V57.5
				C91.8,54.3,89.5,51.8,86.5,51.4z M44.9,56c-4.3,0-7.8-3.6-7.8-8c0-4.4,3.5-8,7.8-8c4.3,0,7.8,3.6,7.8,8
				C52.7,52.4,49.2,56,44.9,56z M70.6,68.6c0,4.4-3.5,8-7.8,8c-4.3,0-7.8-3.6-7.8-8c0-2,0.7-3.8,1.9-5.2c0.3-0.1,0.5-0.4,0.6-0.6
				c1.4-1.4,3.3-2.2,5.4-2.2C67.1,60.5,70.6,64.2,70.6,68.6z M79.1,51.4c-4.3,0-7.8-3.6-7.8-8c0-4.4,3.5-8,7.8-8
				c4.3,0,7.8,3.6,7.8,8C86.9,47.8,83.4,51.4,79.1,51.4z"/>
		</g>
		<g>
			<path class="st14" d="M86.5,51.4c2.1-2,3.4-4.9,3.4-8.1c0-6.1-4.8-11.1-10.8-11.1c-5.9,0-10.8,5-10.8,11.1c0,3.2,1.3,6,3.4,8.1
				c-3,0.3-5.3,2.9-5.3,6.1v0.7c-1.2-0.4-2.4-0.7-3.7-0.7c-2.2,0-4.2,0.7-5.9,1.8c-0.9-1.8-2.6-3-4.6-3.3c2.1-2,3.4-4.9,3.4-8.1
				c0-6.1-4.8-11.1-10.8-11.1c-6,0-10.8,5-10.8,11.1c0,3.2,1.3,6.1,3.4,8.1c-3,0.3-5.3,2.9-5.3,6.1v25.3c0,0.8,0.7,1.5,1.5,1.5
				c0.8,0,1.5-0.7,1.5-1.5V62.1c0-1.7,1.3-3.1,3-3.1h13.4c1.4,0,2.6,1,2.9,2.4c-1.6,1.9-2.5,4.4-2.5,7.1c0,3.2,1.3,6.1,3.4,8.1
				c-3,0.3-5.3,2.9-5.3,6.1v10c0,0.8,0.7,1.5,1.5,1.5c0.8,0,1.5-0.7,1.5-1.5v-10c0-1.7,1.3-3.1,3-3.1h13.4c1.6,0,3,1.4,3,3.1v10
				c0,0.8,0.7,1.5,1.5,1.5c0.8,0,1.5-0.7,1.5-1.5v-10c0-3.1-2.3-5.7-5.3-6.1c2.1-2,3.4-4.9,3.4-8.1c0-3.5-1.6-6.7-4.1-8.7
				c0,0,0-0.1,0-0.1v-2.3c0-1.7,1.3-3.1,3-3.1h13.4c1.6,0,3,1.4,3,3.1v25.3c0,0.8,0.7,1.5,1.5,1.5c0.8,0,1.5-0.7,1.5-1.5V57.5
				C91.8,54.3,89.5,51.8,86.5,51.4z M44.9,56c-4.3,0-7.8-3.6-7.8-8c0-4.4,3.5-8,7.8-8c4.3,0,7.8,3.6,7.8,8
				C52.7,52.4,49.2,56,44.9,56z M70.6,68.6c0,4.4-3.5,8-7.8,8c-4.3,0-7.8-3.6-7.8-8c0-2,0.7-3.8,1.9-5.2c0.3-0.1,0.5-0.4,0.6-0.6
				c1.4-1.4,3.3-2.2,5.4-2.2C67.1,60.5,70.6,64.2,70.6,68.6z M79.1,51.4c-4.3,0-7.8-3.6-7.8-8c0-4.4,3.5-8,7.8-8
				c4.3,0,7.8,3.6,7.8,8C86.9,47.8,83.4,51.4,79.1,51.4z"/>
		</g>
	</g>
</g>
</svg>
