<?xml version="1.0" encoding="utf-8"?>
<!-- Generator: Adobe Illustrator 22.0.1, SVG Export Plug-In . SVG Version: 6.00 Build 0)  -->
<svg version="1.1" id="Layer_1" xmlns="http://www.w3.org/2000/svg" xmlns:xlink="http://www.w3.org/1999/xlink" x="0px" y="0px"
	 viewBox="0 0 124 124" style="enable-background:new 0 0 124 124;" xml:space="preserve">
<style type="text/css">
	.st0{fill:#414141;}
	.st1{fill:#FFFFFF;}
</style>
<g id="icon-medicaid-thick">
	<g>
		<circle class="st0" cx="62" cy="62" r="62"/>
	</g>
	<g id="icon_x5F_heart_x5F_hand">
		<g>
			<path class="st1" d="M61.6,93.6c-1.2,0-2.3-0.1-3.3-0.4c-4.1-1.1-14.5-4.6-19.9-6.5v0.1c0,0.3,0,1.5-0.9,2.5
				c-0.5,0.5-1.3,1.1-2.7,1.1H28c-0.6,0-1.1-0.3-1.4-0.8c-0.2-0.3-2.2-3.2-3.7-7.9c-1.5-4.4-2.8-11.2-1-18.8
				c0.2-0.8,0.9-1.4,1.7-1.4H35c1.6,0,3,1.1,3.4,2.6c0.8-0.1,1.7-0.1,2.8-0.1c1.4,0,2.8,0.1,4.1,0.2c6.3,0.7,11.6,2.9,15.4,6.5h10.1
				c2.7,0,5,2.1,5.3,4.7l11.2-4c0.5-0.2,1.5-0.5,2.8-0.5c1.8,0,3.2,0.7,4,2.1c0.9,1.6,0.8,3.3-0.4,4.8c-0.8,1-1.8,1.7-2.3,2
				c-0.9,0.6-20,11-20.2,11.1C70.5,91.5,66.3,93.6,61.6,93.6z M38.4,83c4.5,1.5,16.5,5.7,20.8,6.8c0.7,0.2,1.6,0.3,2.4,0.3
				c3.9,0,7.7-1.9,7.8-2c9.4-5.1,19.4-10.6,19.9-10.9c0.7-0.5,2.1-1.5,1.8-2c-0.1-0.2-0.5-0.4-0.9-0.4c-0.8,0-1.6,0.3-1.6,0.3h-0.1
				h-0.1L74.8,80c-1,1.2-2.5,2-4.1,2H54.4c-1,0-1.8-0.8-1.8-1.8s0.8-1.8,1.8-1.8h16.3c1,0,1.8-0.8,1.8-1.9c0-1-0.8-1.9-1.8-1.9H59.9
				c-0.5,0-0.9-0.2-1.3-0.5c-5.3-5.4-13.3-6.2-17.5-6.2c-1.1,0-2,0-2.7,0.1V83z M34.9,86.9V65.3h-10c-2,10.3,2.5,19.1,4,21.6H34.9z"
				/>
		</g>
		<g>
			<path class="st1" d="M34.9,62.6c1.4,0,2.6,1.2,2.6,2.6v0.1c0.8-0.1,2.1-0.2,3.6-0.2c1.2,0,2.5,0.1,4,0.2
				c6.2,0.7,11.5,2.9,15.1,6.5h10.5l0,0c2.5,0,4.5,2.1,4.5,4.6c0,0.2,0,0.3,0,0.5l12.4-4.4c0.7-0.3,1.6-0.5,2.5-0.5
				c1.2,0,2.5,0.4,3.2,1.7c0.7,1.2,0.6,2.6-0.4,3.8c-0.7,0.9-1.7,1.5-2.1,1.8l-0.1,0.1c-0.8,0.5-18.1,9.9-20.1,11
				c-0.2,0.1-4.4,2.3-9,2.3c-1,0-2.1-0.1-3.1-0.4c-4.5-1.2-17-5.5-21-6.9v1.3c0,0.2,0,1.2-0.7,2c-0.3,0.4-1,0.8-2.1,0.8H28
				c-0.3,0-0.6-0.1-0.7-0.4c-0.1-0.1-2-3-3.6-7.6c-1.4-4.3-2.8-10.9-1-18.3c0.1-0.4,0.5-0.7,0.9-0.7L34.9,62.6 M28.4,87.8h7.4V64.5
				H24.2C21.7,76,27.2,85.8,28.4,87.8 M61.6,91c4.1,0,8.1-2,8.2-2.1c7.7-4.2,19.4-10.5,19.9-10.9l0.1-0.1c2.5-1.6,2.3-2.6,2-3.1
				c-0.4-0.6-1-0.8-1.7-0.8c-0.9,0-1.9,0.4-1.9,0.4l0,0l-13.8,4.9c-0.8,1.1-2.1,1.8-3.6,1.8H54.4c-0.5,0-0.9-0.4-0.9-0.9
				s0.4-0.9,0.9-0.9h16.3c1.5,0,2.7-1.2,2.7-2.8c0-1.5-1.2-2.8-2.7-2.8l0,0H59.9c-0.2,0-0.5-0.1-0.6-0.3C53.8,68,45.9,67,41.1,67
				c-1.6,0-2.8,0.1-3.6,0.2v16.4c3,1.1,16.7,5.8,21.4,7C59.8,90.9,60.7,91,61.6,91 M34.9,60.9H23.5c-1.2,0-2.3,0.8-2.6,2
				c-1.9,7.8-0.5,14.7,1,19.2c1.6,4.9,3.7,7.9,3.8,8.1c0.5,0.7,1.3,1.1,2.2,1.1h6.8c1.4,0,2.6-0.5,3.4-1.4c0.6-0.7,0.9-1.4,1-2
				c5.6,1.9,15,5.1,18.9,6.1c1.1,0.3,2.3,0.4,3.5,0.4c4.9,0,9.3-2.2,9.8-2.5c0.2-0.1,19.3-10.5,20.2-11.1l0.1-0.1
				c0.5-0.3,1.7-1.1,2.5-2.2c1.4-1.8,1.6-3.9,0.5-5.8c-1-1.6-2.6-2.5-4.7-2.5c-1.4,0-2.5,0.4-3.1,0.6l-10.2,3.6
				c-0.8-2.6-3.2-4.5-5.9-4.5h-0.3l0,0h-9.5c-3.9-3.6-9.3-5.9-15.6-6.5c-1.4-0.1-2.8-0.2-4.2-0.2c-0.8,0-1.6,0-2.2,0.1
				C38.2,62,36.7,60.9,34.9,60.9L34.9,60.9z M25.7,66.2h8.4V86h-4.6C27.9,83.2,24.2,75.4,25.7,66.2L25.7,66.2z M39.3,68.8
				c0.5,0,1.1,0,1.8,0c4.1,0,11.9,0.8,16.9,6c0.5,0.5,1.2,0.8,1.9,0.8h10.8l0,0c0.5,0,0.9,0.5,0.9,1c0,0.6-0.4,1-0.9,1H54.4
				c-1.5,0-2.6,1.2-2.6,2.7S53,83,54.4,83h16.3c1.8,0,3.4-0.8,4.6-2.1L88.6,76l0,0l0.1-0.1c0.1-0.1,0.6-0.2,1-0.2
				c-0.2,0.2-0.5,0.4-0.9,0.7h-0.1c-0.6,0.4-10.6,5.8-19.8,10.9c0,0-3.6,1.8-7.3,1.8c-0.8,0-1.5-0.1-2.2-0.3
				c-4.1-1.1-15.3-4.9-20.1-6.6L39.3,68.8L39.3,68.8z"/>
		</g>
	</g>
	<path class="st1" d="M67.3,63.9h-3l0-1.2c-8.3-5.9-12.8-12-15.2-16.1c-0.5-0.8-0.9-1.6-1.2-2.3l-0.2-0.5v-0.1
		c-0.5-1.3-0.7-2.7-0.7-4.3c0-7.3,5.8-13.2,12.9-13.2c2.6,0,5.1,0.8,7.2,2.3c2.1-1.5,4.6-2.3,7.2-2.3c3.5,0,6.8,1.4,9.2,4
		c2.4,2.5,3.6,5.8,3.5,9.3c0,1.3-0.2,2.6-0.7,4.1v0.1l-0.2,0.6c-0.3,0.7-0.7,1.5-1.2,2.3c-1.5,2.8-6,9.7-15.8,16.5
		C68.7,63.6,68,63.9,67.3,63.9z M64.2,61.4c0,0.1,0,0.1,0,0.2L64.2,61.4z M52.7,42.8c0.2,0.4,0.4,0.8,0.6,1.1l0.1,0.1
		c2.1,3.7,6.2,9.1,13.6,14.5c8.5-6.1,12.3-12.1,13.6-14.4l0.1-0.2c0.2-0.3,0.4-0.8,0.7-1.3l0.1-0.2c0.4-1.2,0.6-2.1,0.6-3l0-0.1
		c0.1-2.1-0.6-4.1-2.1-5.7c-1.5-1.5-3.5-2.4-5.6-2.4c-2,0-4,0.8-5.4,2.3l-1.8,1.8l-1.8-1.8c-1.4-1.4-3.4-2.3-5.4-2.3
		c-4.4,0-7.9,3.7-7.9,8.2c0,1.1,0.2,2,0.5,2.8L52.7,42.8z"/>
</g>
</svg>
