<?xml version="1.0" encoding="utf-8"?>
<!-- Generator: Adobe Illustrator 22.0.1, SVG Export Plug-In . SVG Version: 6.00 Build 0)  -->
<svg version="1.1" xmlns="http://www.w3.org/2000/svg" xmlns:xlink="http://www.w3.org/1999/xlink" x="0px" y="0px"
	 viewBox="0 0 124 124" style="enable-background:new 0 0 124 124;" xml:space="preserve">
<style type="text/css">
	.st0{fill:#414141;}
	.st1{fill-rule:evenodd;clip-rule:evenodd;fill:#FFFFFF;}
	.st2{fill:none;stroke:#FFFFFF;stroke-width:3;stroke-miterlimit:100;}
	.st3{fill:none;stroke:#FFFFFF;stroke-width:2.5;stroke-miterlimit:10;}
	.st4{fill-rule:evenodd;clip-rule:evenodd;fill:#414141;}
	.st5{fill:#FFFFFF;}
	.st6{fill:none;stroke:#FFFFFF;stroke-width:1.5;stroke-miterlimit:10;}
	.st7{fill:#FFFFFF;stroke:#FFFFFF;stroke-width:2;stroke-miterlimit:10;}
	.st8{fill:none;stroke:#FFFFFF;stroke-width:2.5;stroke-miterlimit:100;}
	.st9{fill:#FFFFFF;stroke:#FFFFFF;stroke-miterlimit:100;}
	.st10{fill:none;stroke:#FFFFFF;stroke-width:5;stroke-miterlimit:10;}
	.st11{fill:none;stroke:#FFFFFF;stroke-width:2.75;stroke-miterlimit:100;}
	.st12{fill:none;stroke:#FFFFFF;stroke-miterlimit:100;}
	.st13{fill:#FFFFFF;stroke:#FFFFFF;stroke-width:3;stroke-miterlimit:100;}
	.st14{fill:none;stroke:#FFFFFF;stroke-width:2;stroke-miterlimit:100;}
	.st15{fill-rule:evenodd;clip-rule:evenodd;fill:#F5F5F5;}
</style>
<g id="icon-newsletter-thick">
	<g>
		<circle class="st0" cx="62" cy="62" r="62"/>
	</g>
	<g id="icon_x5F_newsletter">
		<g>
			<path class="st1" d="M38.9,34.7v24.9H25.9v24.1c0,4,3.3,7.2,7.3,7.2h52.7c5,0,9-4,9-8.8V34.7H38.9z M33.2,89.3
				c-3.2,0-5.7-2.5-5.7-5.6V61.2h11.4v22.5C38.9,86.8,36.4,89.3,33.2,89.3z M93.2,82.1c0,4-3.3,7.2-7.3,7.2H37.8
				c1.7-1.4,2.7-3.4,2.7-5.6l0.1-47.4h52.7V82.1z M64,44.7H49.3v13.7H64V44.7z M62.4,56.8H50.9V46.3h11.4V56.8z M84.4,47.1H71.4v1.6
				h13.1V47.1z M84.4,56.8H71.4v1.6h13.1V56.8z M84.4,67.2H49.3v1.6h35.1V67.2z M84.4,76.9H49.3v1.6h35.1V76.9z"/>
		</g>
		<g>
			<path class="st2" d="M38.9,34.7v24.9H25.9v24.1c0,4,3.3,7.2,7.3,7.2h52.7c5,0,9-4,9-8.8V34.7H38.9z M33.2,89.3
				c-3.2,0-5.7-2.5-5.7-5.6V61.2h11.4v22.5C38.9,86.8,36.4,89.3,33.2,89.3z M93.2,82.1c0,4-3.3,7.2-7.3,7.2H37.8
				c1.7-1.4,2.7-3.4,2.7-5.6l0.1-47.4h52.7V82.1z M64,44.7H49.3v13.7H64V44.7z M62.4,56.8H50.9V46.3h11.4V56.8z M84.4,47.1H71.4v1.6
				h13.1V47.1z M84.4,56.8H71.4v1.6h13.1V56.8z M84.4,67.2H49.3v1.6h35.1V67.2z M84.4,76.9H49.3v1.6h35.1V76.9z"/>
		</g>
	</g>
</g>
<g id="icon-form-video-thick">
</g>
<g id="icon-regulations-thick">
</g>
<g id="icon-considering-thick">
</g>
<g id="icon-federal-thick">
</g>
<g id="icon-calendar-thick">
</g>
<g id="icon-phone-thick">
</g>
<g id="icon-medicaid-thick">
</g>
<g id="icon-education-thick">
</g>
<g id="icon-international-thick">
</g>
<g id="icon-certification-thick">
</g>
<g id="icon-question-thick">
</g>
<g id="icon-person-thick">
</g>
<g id="icon-forms-thick">
</g>
<g id="icon-quote-thick">
</g>
<g id="icon-clipboard-thick">
</g>
<g id="icon-drugs-thick">
</g>
<g id="icon-medicare-thick">
</g>
<g id="icon-brokers-thick">
</g>
<g id="icon-stethoscope-thick">
</g>
<g id="icon-employers-thick">
</g>
<g id="icon-individuals-thick">
</g>
</svg>
