<?xml version="1.0" encoding="utf-8"?>
<!-- Generator: Adobe Illustrator 22.0.1, SVG Export Plug-In . SVG Version: 6.00 Build 0)  -->
<svg version="1.1" xmlns="http://www.w3.org/2000/svg" xmlns:xlink="http://www.w3.org/1999/xlink" x="0px" y="0px"
	 viewBox="0 0 124 124" style="enable-background:new 0 0 124 124;" xml:space="preserve">
<style type="text/css">
	.st0{fill:#414141;}
	.st1{fill-rule:evenodd;clip-rule:evenodd;fill:#FFFFFF;}
	.st2{fill:none;stroke:#FFFFFF;stroke-width:3;stroke-miterlimit:100;}
	.st3{fill:none;stroke:#FFFFFF;stroke-width:2.5;stroke-miterlimit:10;}
	.st4{fill-rule:evenodd;clip-rule:evenodd;fill:#414141;}
	.st5{fill:#FFFFFF;}
	.st6{fill:none;stroke:#FFFFFF;stroke-width:1.5;stroke-miterlimit:10;}
	.st7{fill:#FFFFFF;stroke:#FFFFFF;stroke-width:2;stroke-miterlimit:10;}
	.st8{fill:none;stroke:#FFFFFF;stroke-width:2.5;stroke-miterlimit:100;}
	.st9{fill:#FFFFFF;stroke:#FFFFFF;stroke-miterlimit:100;}
	.st10{fill:none;stroke:#FFFFFF;stroke-width:5;stroke-miterlimit:10;}
	.st11{fill:none;stroke:#FFFFFF;stroke-width:2.75;stroke-miterlimit:100;}
	.st12{fill:none;stroke:#FFFFFF;stroke-miterlimit:100;}
	.st13{fill:#FFFFFF;stroke:#FFFFFF;stroke-width:3;stroke-miterlimit:100;}
	.st14{fill:none;stroke:#FFFFFF;stroke-width:2;stroke-miterlimit:100;}
	.st15{fill-rule:evenodd;clip-rule:evenodd;fill:#F5F5F5;}
</style>
<g id="icon-newsletter-thick">
</g>
<g id="icon-form-video-thick">
</g>
<g id="icon-regulations-thick">
</g>
<g id="icon-considering-thick">
</g>
<g id="icon-federal-thick">
</g>
<g id="icon-calendar-thick">
</g>
<g id="icon-phone-thick">
</g>
<g id="icon-medicaid-thick">
</g>
<g id="icon-education-thick">
</g>
<g id="icon-international-thick">
</g>
<g id="icon-certification-thick">
</g>
<g id="icon-question-thick">
</g>
<g id="icon-person-thick">
</g>
<g id="icon-forms-thick">
</g>
<g id="icon-quote-thick">
</g>
<g id="icon-clipboard-thick">
</g>
<g id="icon-drugs-thick">
</g>
<g id="icon-medicare-thick">
</g>
<g id="icon-brokers-thick">
</g>
<g id="icon-stethoscope-thick">
	<g>
		<circle class="st0" cx="62" cy="62" r="62"/>
	</g>
	<g id="icon-stethoscope">
		<g>
			<path class="st15" d="M67.1,93.7c-7.7,0-13.9-6.4-13.9-14.4V66.7l-1.7-0.3c-5.7-1.2-9.9-6.5-9.9-12.6v-7.7l-1.1-0.6
				c-1.1-0.7-1.8-2-1.8-3.4c0-2.2,1.7-3.9,3.8-3.9c2.1,0,3.8,1.8,3.8,3.9c0,1.4-0.7,2.7-1.9,3.4l-1,0.6v7.6c0,6,4.8,10.9,10.7,10.9
				c5.9,0,10.7-4.9,10.7-10.9V46l-1.1-0.5c-1.1-0.7-1.8-2-1.8-3.4c0-2.2,1.7-4,3.8-4c2.1,0,3.8,1.8,3.8,4c0,1.4-0.7,2.7-1.9,3.4
				l-1,0.6v7.7c0,6.1-4.2,11.4-10,12.6l-1.6,0.3v12.5c0,6.8,5.4,12.4,12.1,12.4c6.7,0,12.1-5.6,12.1-12.4v-3.5l-1.5-0.4
				c-2.6-1-4.3-3.6-4.3-6.5c0-3.8,3-6.9,6.7-6.9c3.7,0,6.7,3.1,6.7,6.9c0,2.9-1.8,5.5-4.5,6.5L81,76v3.4
				C81,87.3,74.7,93.7,67.1,93.7z M80.1,64c-2.7,0-4.9,2.2-4.9,5c0,2.7,2.2,5,4.9,5c2.7,0,4.9-2.2,4.9-5C85,66.3,82.8,64,80.1,64z"
				/>
		</g>
		<g>
			<path class="st5" d="M65.6,40.2c1,0,1.8,0.9,1.8,2c0,0.7-0.4,1.4-0.9,1.7l-0.6,0.4l-1.2-0.5c-0.4-0.3-0.8-0.8-0.8-1.6
				C63.8,41.1,64.6,40.2,65.6,40.2 M42.5,40.2c1,0,1.8,0.9,1.8,1.9c0,0.7-0.4,1.4-1,1.7l-0.8,0.5l-1-0.5c-0.4-0.3-0.9-0.9-0.9-1.7
				C40.7,41.1,41.5,40.2,42.5,40.2 M65.6,36.2c-3.2,0-5.8,2.7-5.8,6c0,2.2,1.2,4.1,2.9,5.1l0,0v6.5c0,4.9-3.9,8.9-8.7,8.9
				c-4.8,0-8.7-4-8.7-8.9v-6.5c1.7-1,2.9-3,2.9-5.2c0-3.3-2.6-5.9-5.8-5.9c-3.2,0-5.8,2.7-5.8,5.9c0,2.2,1.2,4.1,2.9,5.1l0,0v6.5
				C39.6,61,44.5,67,51,68.4l0.1,0v10.9c0,9,7.1,16.4,15.9,16.4c8.8,0,15.9-7.3,15.9-16.4v-2c3.4-1.3,5.8-4.5,5.8-8.4v0
				c0-4.9-3.9-8.9-8.7-8.9c-4.8,0-8.7,4-8.7,8.9c0,3.9,2.4,7.2,5.7,8.4l0.1,0v2c0,5.8-4.5,10.4-10.1,10.4c-5.6,0-10.1-4.7-10.1-10.4
				V68.4C63.6,67,68.5,61,68.5,53.9v-6.6c1.7-1,2.9-3,2.9-5.1C71.4,38.9,68.8,36.2,65.6,36.2L65.6,36.2z M80.1,72
				c-1.6,0-2.9-1.3-2.9-3c0-1.6,1.3-3,2.9-3c1.6,0,2.9,1.3,2.9,3C83,70.6,81.7,72,80.1,72L80.1,72z"/>
		</g>
	</g>
</g>
<g id="icon-employers-thick">
</g>
<g id="icon-individuals-thick">
</g>
</svg>
