<?xml version="1.0" encoding="utf-8"?>
<!-- Generator: Adobe Illustrator 22.0.1, SVG Export Plug-In . SVG Version: 6.00 Build 0)  -->
<svg version="1.1" id="Layer_1" xmlns="http://www.w3.org/2000/svg" xmlns:xlink="http://www.w3.org/1999/xlink" x="0px" y="0px"
	 viewBox="0 0 124 124" style="enable-background:new 0 0 124 124;" xml:space="preserve">
<style type="text/css">
	.st0{fill:#414141;}
	.st1{fill:#FFFFFF;}
</style>
<g id="icon-nurse-thick">
	<g>
		<circle class="st0" cx="62" cy="62" r="62"/>
	</g>
	<g transform="translate(0,-952.36218)">
		<g>
			<path class="st1" d="M53.1,980.4c-2.9,0-5.2,2.4-5.2,5.2v9.2h-19c-2.9,0-5.2,2.4-5.2,5.2v40c0,2.9,2.4,5.2,5.2,5.2H95
				c2.9,0,5.2-2.4,5.2-5.2v-40c0-2.9-2.4-5.2-5.2-5.2H75.1v-9.2c0-2.9-2.4-5.2-5.2-5.2L53.1,980.4L53.1,980.4z M53.1,983.9h16.8
				c1,0,1.7,0.7,1.7,1.7v9.2H51.3v-9.2C51.3,984.6,52.1,983.9,53.1,983.9z M28.9,998.3h10.4v43.5H28.9c-1,0-1.7-0.7-1.7-1.7v-40
				C27.2,999.1,27.9,998.3,28.9,998.3z M42.9,998.3h38.3v43.5H42.9V998.3z M84.6,998.3H95c1,0,1.7,0.7,1.7,1.7v40
				c0,1-0.7,1.7-1.7,1.7H84.6V998.3z"/>
			<path class="st1" d="M95,1046.2H28.9c-3.4,0-6.2-2.8-6.2-6.2v-40c0-3.4,2.8-6.2,6.2-6.2h18v-8.2c0-3.4,2.8-6.2,6.2-6.2h16.8
				c3.4,0,6.2,2.8,6.2,6.2v8.2H95c3.4,0,6.2,2.8,6.2,6.2v40C101.2,1043.4,98.4,1046.2,95,1046.2z M28.9,995.8
				c-2.3,0-4.2,1.9-4.2,4.2v40c0,2.3,1.9,4.2,4.2,4.2H95c2.3,0,4.2-1.9,4.2-4.2v-40c0-2.3-1.9-4.2-4.2-4.2H74.1v-10.2
				c0-2.3-1.9-4.2-4.2-4.2H53.1c-2.3,0-4.2,1.9-4.2,4.2v10.2H28.9z M82.2,1042.8H41.9v-45.5h40.3V1042.8z M43.9,1040.8h36.3v-41.5
				H43.9V1040.8z M40.3,1042.8H28.9c-1.6,0-2.7-1.1-2.7-2.7v-40c0-1.6,1.2-2.8,2.7-2.8h11.4V1042.8z M28.9,999.3
				c-0.5,0-0.7,0.4-0.7,0.8v40c0,0.4,0.3,0.7,0.7,0.7h9.4v-41.5L28.9,999.3L28.9,999.3z M95,1042.7H83.6v-45.4H95
				c1.6,0,2.7,1.1,2.7,2.7v40C97.7,1041.6,96.6,1042.7,95,1042.7z M85.6,1040.7H95c0.4,0,0.7-0.3,0.7-0.7v-40c0-0.4-0.3-0.7-0.7-0.7
				h-9.4V1040.7z M72.6,995.8H50.3v-10.2c0-1.5,1.2-2.7,2.8-2.7h16.8c1.6,0,2.7,1.1,2.7,2.7C72.6,985.6,72.6,995.8,72.6,995.8z
				 M52.3,993.8h18.3v-8.2c0-0.4-0.3-0.7-0.7-0.7H53.1c-0.4,0-0.8,0.2-0.8,0.7V993.8z"/>
		</g>
	</g>
</g>
</svg>
