<svg xmlns="http://www.w3.org/2000/svg" viewBox="0 0 45.39 24.78"><title>Asset 5</title><g id="Layer_2" data-name="Layer 2"><g id="Layer_1-2" data-name="Layer 1"><path d="M.13,8.36H0v8.19l6.68-.11,1.77.6v4l8.17,3.11V19.79l14.79,5V0L6.65,8.44Zm5.53,2.25V14.3H2.32V10.63ZM8,14.49V10.37l21.11-6.6V21Zm7.14,7.45L10,20V17.54l5.17,1.74Z" fill="#fff"/><polygon points="43.08 2.97 43.17 2.88 41.74 1.45 35.77 7.43 35.68 7.52 37.11 8.95 43.08 2.97" fill="#fff"/><polygon points="37.11 15.84 35.68 17.27 41.65 23.24 41.74 23.33 43.17 21.9 37.2 15.93 37.11 15.84" fill="#fff"/><polygon points="45.35 11.41 36.9 11.58 36.78 11.58 36.82 13.6 45.27 13.44 45.39 13.44 45.35 11.41" fill="#fff"/></g></g></svg>