<?xml version="1.0" encoding="utf-8"?>
<!-- Generator: Adobe Illustrator 22.0.1, SVG Export Plug-In . SVG Version: 6.00 Build 0)  -->
<svg version="1.1" xmlns="http://www.w3.org/2000/svg" xmlns:xlink="http://www.w3.org/1999/xlink" x="0px" y="0px"
	 viewBox="0 0 124 124" style="enable-background:new 0 0 124 124;" xml:space="preserve">
<style type="text/css">
	.st0{fill:#414141;}
	.st1{fill-rule:evenodd;clip-rule:evenodd;fill:#FFFFFF;}
	.st2{fill:none;stroke:#FFFFFF;stroke-width:3;stroke-miterlimit:100;}
	.st3{fill:none;stroke:#FFFFFF;stroke-width:2.5;stroke-miterlimit:10;}
	.st4{fill-rule:evenodd;clip-rule:evenodd;fill:#414141;}
	.st5{fill:#FFFFFF;}
	.st6{fill:none;stroke:#FFFFFF;stroke-width:1.5;stroke-miterlimit:10;}
	.st7{fill:#FFFFFF;stroke:#FFFFFF;stroke-width:2;stroke-miterlimit:10;}
	.st8{fill:none;stroke:#FFFFFF;stroke-width:2.5;stroke-miterlimit:100;}
	.st9{fill:#FFFFFF;stroke:#FFFFFF;stroke-miterlimit:100;}
	.st10{fill:none;stroke:#FFFFFF;stroke-width:5;stroke-miterlimit:10;}
	.st11{fill:none;stroke:#FFFFFF;stroke-width:2.75;stroke-miterlimit:100;}
	.st12{fill:none;stroke:#FFFFFF;stroke-miterlimit:100;}
	.st13{fill:#FFFFFF;stroke:#FFFFFF;stroke-width:3;stroke-miterlimit:100;}
	.st14{fill:none;stroke:#FFFFFF;stroke-width:2;stroke-miterlimit:100;}
	.st15{fill-rule:evenodd;clip-rule:evenodd;fill:#F5F5F5;}
</style>
<g id="icon-newsletter-thick">
</g>
<g id="icon-form-video-thick">
</g>
<g id="icon-regulations-thick">
</g>
<g id="icon-considering-thick">
</g>
<g id="icon-federal-thick">
</g>
<g id="icon-calendar-thick">
</g>
<g id="icon-phone-thick">
</g>
<g id="icon-medicaid-thick">
</g>
<g id="icon-education-thick">
</g>
<g id="icon-international-thick">
</g>
<g id="icon-certification-thick">
</g>
<g id="icon-question-thick">
</g>
<g id="icon-person-thick">
</g>
<g id="icon-forms-thick">
</g>
<g id="icon-quote-thick">
</g>
<g id="icon-clipboard-thick">
</g>
<g id="icon-drugs-thick">
</g>
<g id="icon-medicare-thick">
</g>
<g id="icon-brokers-thick">
</g>
<g id="icon-stethoscope-thick">
</g>
<g id="icon-employers-thick">
	<g>
		<circle class="st0" cx="62" cy="62" r="62"/>
	</g>
	<g id="icon-case">
		<g>
			<path class="st15" d="M36.1,89.2c-2.6,0-4.8-2.1-4.8-4.7V49.6c0-2.6,2.1-4.7,4.8-4.7h10.5v-4.8c0-2.6,2.1-4.7,4.8-4.7h21.3
				c2.6,0,4.8,2.1,4.8,4.7v4.8h10.5c2.6,0,4.7,2.1,4.7,4.7v34.8c0,2.6-2.1,4.7-4.8,4.7H36.1z M34.6,84.5c0,0.8,0.7,1.5,1.5,1.5h51.8
				c0.8,0,1.5-0.7,1.5-1.5V64.5h-12V68c0,0.9-0.7,1.6-1.6,1.6c-0.9,0-1.6-0.7-1.6-1.6v-3.5H49.8V68c0,0.9-0.7,1.6-1.6,1.6
				c-0.9,0-1.6-0.7-1.6-1.6v-3.5h-12V84.5z M75.8,56.6c0.9,0,1.6,0.7,1.6,1.6v3.1h12V49.6c0-0.8-0.7-1.5-1.5-1.5H36.1
				c-0.8,0-1.5,0.7-1.5,1.5v11.7h12v-3.1c0-0.9,0.7-1.6,1.6-1.6c0.9,0,1.6,0.7,1.6,1.6v3.1h24.3v-3.1C74.2,57.3,74.9,56.6,75.8,56.6
				z M51.4,38.6c-0.8,0-1.5,0.7-1.5,1.5v4.8h24.3v-4.8c0-0.8-0.7-1.5-1.5-1.5H51.4z"/>
		</g>
		<g>
			<path class="st5" d="M72.6,35.7c2.4,0,4.4,1.9,4.4,4.3v4.5v0.8h0.8h10.1c2.4,0,4.4,1.9,4.4,4.3v34.8c0,2.4-2,4.3-4.4,4.3H36.1
				c-2.4,0-4.4-1.9-4.4-4.3V49.6c0-2.4,2-4.3,4.4-4.3h10.1H47v-0.8v-4.5c0-2.4,2-4.3,4.4-4.3H72.6 M49.5,45.3h0.8h23.6h0.8v-0.8
				v-4.5c0-1-0.9-1.9-1.9-1.9H51.4c-1,0-1.9,0.8-1.9,1.9v4.5V45.3 M34.2,61.7H35h11.3H47v-0.8v-2.8c0-0.7,0.6-1.2,1.2-1.2
				c0.7,0,1.2,0.6,1.2,1.2v2.8v0.8h0.8h23.6h0.8v-0.8v-2.8c0-0.7,0.6-1.2,1.2-1.2c0.7,0,1.2,0.6,1.2,1.2v2.8v0.8h0.8H89h0.8v-0.8
				V49.6c0-1-0.8-1.9-1.9-1.9H36.1c-1,0-1.9,0.8-1.9,1.9v11.3V61.7 M75.8,69.2c-0.7,0-1.2-0.6-1.2-1.2v-3.1v-0.8h-0.8H50.2h-0.8v0.8
				V68c0,0.7-0.6,1.2-1.2,1.2c-0.7,0-1.2-0.6-1.2-1.2v-3.1v-0.8h-0.8H35h-0.8v0.8v19.6c0,1,0.9,1.9,1.9,1.9h51.8
				c1,0,1.9-0.8,1.9-1.9V64.9v-0.8H89H77.8H77v0.8V68C77,68.7,76.4,69.2,75.8,69.2 M72.6,35H51.4c-2.8,0-5.1,2.3-5.1,5.1v4.5H36.1
				c-2.8,0-5.1,2.3-5.1,5.1v34.8c0,2.8,2.3,5.1,5.1,5.1h51.8c2.8,0,5.1-2.3,5.1-5.1V49.6c0-2.8-2.3-5.1-5.1-5.1H77.8v-4.5
				C77.8,37.3,75.5,35,72.6,35L72.6,35z M50.2,44.5v-4.5c0-0.6,0.5-1.1,1.1-1.1h21.3c0.6,0,1.1,0.5,1.1,1.1v4.5H50.2L50.2,44.5z
				 M35,60.9V49.6c0-0.6,0.5-1.1,1.1-1.1h51.8c0.6,0,1.1,0.5,1.1,1.1v11.3H77.8v-2.8c0-1.1-0.9-2-2-2c-1.1,0-2,0.9-2,2v2.8H50.2
				v-2.8c0-1.1-0.9-2-2-2c-1.1,0-2,0.9-2,2v2.8H35L35,60.9z M75.8,70c1.1,0,2-0.9,2-2v-3.1H89v19.6c0,0.6-0.5,1.1-1.1,1.1H36.1
				c-0.6,0-1.1-0.5-1.1-1.1V64.9h11.3V68c0,1.1,0.9,2,2,2c1.1,0,2-0.9,2-2v-3.1h23.6V68C73.8,69.1,74.7,70,75.8,70L75.8,70z"/>
		</g>
	</g>
	<g id="icon-case_2_">
		<g>
			<path class="st15" d="M37.1,87.6c-2.3,0-4.1-1.8-4.1-4.1V48.6c0-2.3,1.9-4.1,4.1-4.1h11.1v-5.5c0-2.3,1.9-4.1,4.1-4.1h21.3
				c2.3,0,4.1,1.8,4.1,4.1v5.5h11.1c2.3,0,4.1,1.8,4.1,4.1v34.8c0,2.3-1.9,4.1-4.1,4.1H37.1z M35,83.5c0,1.2,1,2.1,2.1,2.1h51.8
				c1.2,0,2.1-1,2.1-2.1V62.9H77.8V67c0,0.5-0.4,1-1,1c-0.5,0-1-0.4-1-1v-4.1H50.2V67c0,0.5-0.4,1-1,1c-0.5,0-1-0.4-1-1v-4.1H35
				V83.5z M76.8,56.2c0.5,0,1,0.4,1,1v3.8H91V48.6c0-1.2-1-2.1-2.1-2.1H37.1c-1.2,0-2.1,1-2.1,2.1v12.3h13.3v-3.8c0-0.5,0.4-1,1-1
				c0.5,0,1,0.4,1,1v3.8h25.6v-3.8C75.8,56.6,76.2,56.2,76.8,56.2z M52.4,36.9c-1.2,0-2.1,1-2.1,2.1v5.5h25.6v-5.5
				c0-1.2-1-2.1-2.1-2.1H52.4z"/>
		</g>
		<g>
			<path class="st5" d="M73.6,34H52.4c-2.8,0-5.1,2.3-5.1,5.1v4.5H37.1c-2.8,0-5.1,2.3-5.1,5.1v34.8c0,2.8,2.3,5.1,5.1,5.1h51.8
				c2.8,0,5.1-2.3,5.1-5.1V48.6c0-2.8-2.3-5.1-5.1-5.1H78.8v-4.5C78.8,36.3,76.5,34,73.6,34L73.6,34z M51.2,43.5v-4.5
				c0-0.6,0.5-1.1,1.1-1.1h21.3c0.6,0,1.1,0.5,1.1,1.1v4.5H51.2L51.2,43.5z M36,59.9V48.6c0-0.6,0.5-1.1,1.1-1.1h51.8
				c0.6,0,1.1,0.5,1.1,1.1v11.3H78.8v-2.8c0-1.1-0.9-2-2-2c-1.1,0-2,0.9-2,2v2.8H51.2v-2.8c0-1.1-0.9-2-2-2c-1.1,0-2,0.9-2,2v2.8H36
				L36,59.9z M76.8,69c1.1,0,2-0.9,2-2v-3.1H90v19.6c0,0.6-0.5,1.1-1.1,1.1H37.1c-0.6,0-1.1-0.5-1.1-1.1V63.9h11.3V67
				c0,1.1,0.9,2,2,2c1.1,0,2-0.9,2-2v-3.1h23.6V67C74.8,68.1,75.7,69,76.8,69L76.8,69z"/>
		</g>
	</g>
</g>
<g id="icon-individuals-thick">
</g>
</svg>
